<svg width="1132" viewBox="0 0 1132 804" xmlns="http://www.w3.org/2000/svg" xmlns:ev="http://www.w3.org/2001/xml-events" xmlns:xlink="http://www.w3.org/1999/xlink" height="804"><defs/><g transform="translate(5.5,5.5)" id="page1"><rect x="0" width="1123" fill="#ffffff" y="0" height="794"/><g transform="translate(497.760000,208.350000)" id="shape1"><path stroke-width="4" fill="#ffffff" d="M20.0,.0L101.0,.0C112.0,.0,121.0,9.0,121.0,20.0L121.0,49.0C121.0,60.0,112.0,69.0,101.0,69.0L20.0,69.0C9.0,69.0,.0,60.0,.0,49.0L.0,20.0C.0,9.0,9.0,.0,20.0,.0z" stroke="#000000" fill-rule="nonzero"/><text style="fill:#454545;font-family:微软雅黑;font-size:18.00pt;font-weight:bold" xml:space="preserve"><tspan x="26.3" y="44.0">哈希表</tspan></text></g><g transform="translate(524.88,307.35)" id="shape2"><path fill="#26a1ff" d="M35.9,-30.0C36.1,-31.8,34.8,-33.0,33.4,-33.0C32.0,-33.0,30.7,-31.8,30.9,-30.0L32.7,-6.4L-29.1,-5.2C-29.7,-5.0,-30.4,-4.7,-31.0,-4.4C-31.6,-4.1,-32.1,-3.6,-32.6,-3.1C-33.0,-2.6,-33.4,-2.0,-33.7,-1.4C-34.0,-0.8,-34.2,-0.2,-34.3,.6C-34.4,1.4,-34.4,2.4,-34.3,2.9C-34.3,3.4,-34.3,3.5,-34.3,3.6L-33.9,30.0C-33.9,30.4,-33.6,30.6,-33.4,30.6C-33.1,30.6,-32.9,30.4,-32.9,30.0L-32.4,3.6C-32.4,3.5,-32.4,3.4,-32.4,2.9C-32.4,2.4,-32.4,1.5,-32.3,.9C-32.2,.3,-32.1,-0.1,-31.8,-0.5C-31.6,-0.9,-31.3,-1.3,-31.0,-1.7C-30.7,-2.0,-30.3,-2.3,-29.9,-2.5C-29.5,-2.8,-29.0,-2.9,-28.5,-3.1L32.7,-2.2L35.9,-30.0z" fill-rule="evenodd"/><path stroke-width="1" d="M35.9,-30.0C36.1,-31.8,34.8,-33.0,33.4,-33.0C32.0,-33.0,30.7,-31.8,30.9,-30.0L32.7,-6.4L-29.1,-5.2C-29.7,-5.0,-30.4,-4.7,-31.0,-4.4C-31.6,-4.1,-32.1,-3.6,-32.6,-3.1C-33.0,-2.6,-33.4,-2.0,-33.7,-1.4C-34.0,-0.8,-34.2,-0.2,-34.3,.6C-34.4,1.4,-34.4,2.4,-34.3,2.9C-34.3,3.4,-34.3,3.5,-34.3,3.6L-33.9,30.0C-33.9,30.4,-33.6,30.6,-33.4,30.6C-33.1,30.6,-32.9,30.4,-32.9,30.0L-32.4,3.6C-32.4,3.5,-32.4,3.4,-32.4,2.9C-32.4,2.4,-32.4,1.5,-32.3,.9C-32.2,.3,-32.1,-0.1,-31.8,-0.5C-31.6,-0.9,-31.3,-1.3,-31.0,-1.7C-30.7,-2.0,-30.3,-2.3,-29.9,-2.5C-29.5,-2.8,-29.0,-2.9,-28.5,-3.1L32.7,-2.2L35.9,-30.0z" fill="none" stroke="#26a1ff" stroke-linecap="round"/></g><g transform="translate(388.13,307.35)" id="shape3"><path fill="#ff6063" d="M172.6,-30.0C172.8,-31.8,171.5,-33.0,170.1,-33.0C168.8,-33.0,167.5,-31.8,167.6,-30.0L169.4,-6.7L-165.2,-4.9C-165.8,-4.7,-166.4,-4.6,-167.0,-4.3C-167.6,-4.0,-168.2,-3.7,-168.6,-3.2C-169.1,-2.8,-169.5,-2.2,-169.8,-1.7C-170.2,-1.2,-170.4,-0.7,-170.6,.1C-170.7,.8,-170.8,1.9,-170.8,2.4C-170.8,2.9,-170.8,3.0,-170.8,3.1L-170.6,30.0C-170.6,30.4,-170.4,30.6,-170.1,30.6C-169.8,30.6,-169.6,30.4,-169.6,30.0L-169.5,3.1C-169.5,3.0,-169.5,2.9,-169.5,2.4C-169.5,1.9,-169.4,1.0,-169.3,.4C-169.2,-0.2,-169.0,-0.6,-168.7,-1.0C-168.4,-1.4,-168.1,-1.9,-167.7,-2.2C-167.3,-2.6,-166.9,-2.9,-166.4,-3.1C-166.0,-3.3,-165.5,-3.4,-165.0,-3.5L169.4,-1.9L172.6,-30.0z" fill-rule="evenodd"/><path stroke-width="1" d="M172.6,-30.0C172.8,-31.8,171.5,-33.0,170.1,-33.0C168.8,-33.0,167.5,-31.8,167.6,-30.0L169.4,-6.7L-165.2,-4.9C-165.8,-4.7,-166.4,-4.6,-167.0,-4.3C-167.6,-4.0,-168.2,-3.7,-168.6,-3.2C-169.1,-2.8,-169.5,-2.2,-169.8,-1.7C-170.2,-1.2,-170.4,-0.7,-170.6,.1C-170.7,.8,-170.8,1.9,-170.8,2.4C-170.8,2.9,-170.8,3.0,-170.8,3.1L-170.6,30.0C-170.6,30.4,-170.4,30.6,-170.1,30.6C-169.8,30.6,-169.6,30.4,-169.6,30.0L-169.5,3.1C-169.5,3.0,-169.5,2.9,-169.5,2.4C-169.5,1.9,-169.4,1.0,-169.3,.4C-169.2,-0.2,-169.0,-0.6,-168.7,-1.0C-168.4,-1.4,-168.1,-1.9,-167.7,-2.2C-167.3,-2.6,-166.9,-2.9,-166.4,-3.1C-166.0,-3.3,-165.5,-3.4,-165.0,-3.5L169.4,-1.9L172.6,-30.0z" fill="none" stroke="#ff6063" stroke-linecap="round"/></g><path transform="translate(440.26,483.85)" stroke-width="2" d="M51.3,-22.5L51.3,-4.3C51.3,-2.6,49.9,-1.3,48.3,-1.3L-42.3,-1.3C-43.9,-1.3,-46.4,-1.5,-48.1,-0.6C-50.0,.5,-51.3,2.4,-51.3,4.7L-51.3,22.5" fill="none" stroke="#26a1ff" id="shape4" stroke-linecap="round"/><path transform="translate(491.51,407.85)" stroke-width="2" d="M.0,-22.5L.0,-4.3C.0,-2.6,.0,-0.3,.0,1.7C.0,2.6,.0,3.6,.0,4.7L.0,22.5" fill="none" stroke="#26a1ff" id="shape5" stroke-linecap="round"/><path transform="translate(218.01,407.85)" stroke-width="2" d="M.0,-22.5L.0,-4.3C.0,-2.6,.0,-0.3,.0,1.7C.0,2.6,.0,3.6,.0,4.7L.0,22.5" fill="none" stroke="#ff6063" id="shape6" stroke-linecap="round"/><path transform="translate(510.63,483.85)" stroke-width="2" d="M-19.1,-22.5L-19.1,-4.3C-19.1,-2.6,-17.8,-1.3,-16.1,-1.3L10.1,-1.3C11.8,-1.3,14.2,-1.5,16.0,-0.6C17.9,.5,19.1,2.4,19.1,4.7L19.1,22.5" fill="none" stroke="#26a1ff" id="shape7" stroke-linecap="round"/><path transform="translate(389.01,559.85)" stroke-width="2" d="M.0,-22.5L.0,-4.3C.0,-2.6,.0,-0.3,.0,1.7C.0,2.6,.0,3.6,.0,4.7L.0,22.5" fill="none" stroke="#26a1ff" id="shape8" stroke-linecap="round"/><path transform="translate(545.63,559.85)" stroke-width="2" d="M-15.9,-22.5L-15.9,-4.3C-15.9,-2.6,-14.5,-1.3,-12.9,-1.3L6.9,-1.3C8.5,-1.3,11.0,-1.5,12.8,-0.6C14.6,.5,15.9,2.4,15.9,4.7L15.9,22.5" fill="none" stroke="#26a1ff" id="shape9" stroke-linecap="round"/><path transform="translate(494.38,559.85)" stroke-width="2" d="M35.4,-22.5L35.4,-4.3C35.4,-2.6,34.0,-1.3,32.4,-1.3L-26.4,-1.3C-28.0,-1.3,-30.5,-1.5,-32.3,-0.6C-34.1,.5,-35.4,2.4,-35.4,4.7L-35.4,22.5" fill="none" stroke="#26a1ff" id="shape10" stroke-linecap="round"/><g transform="translate(695.01,307.35)" id="shape11"><path fill="#ffcb46" d="M-134.3,-30.0C-134.1,-31.8,-135.4,-33.0,-136.8,-33.0C-138.1,-33.0,-139.5,-31.8,-139.3,-30.0L-136.1,-2.0L131.8,-3.5C132.3,-3.3,132.8,-3.2,133.2,-3.0C133.7,-2.7,134.1,-2.4,134.5,-2.1C134.9,-1.7,135.2,-1.2,135.4,-0.8C135.7,-0.4,135.9,-0.0,136.0,.6C136.1,1.3,136.1,2.2,136.1,2.6C136.1,3.1,136.1,3.2,136.1,3.3L136.3,30.0C136.3,30.4,136.5,30.6,136.8,30.6C137.0,30.6,137.2,30.4,137.3,30.0L137.4,3.3C137.4,3.3,137.4,3.2,137.4,2.6C137.4,2.1,137.4,1.1,137.3,.3C137.2,-0.4,136.9,-0.9,136.6,-1.5C136.3,-2.0,135.9,-2.6,135.5,-3.1C135.0,-3.5,134.5,-3.9,133.9,-4.2C133.3,-4.5,132.7,-4.7,132.1,-4.9L-136.1,-6.6L-134.3,-30.0z" fill-rule="evenodd"/><path stroke-width="1" d="M-134.3,-30.0C-134.1,-31.8,-135.4,-33.0,-136.8,-33.0C-138.1,-33.0,-139.5,-31.8,-139.3,-30.0L-136.1,-2.0L131.8,-3.5C132.3,-3.3,132.8,-3.2,133.2,-3.0C133.7,-2.7,134.1,-2.4,134.5,-2.1C134.9,-1.7,135.2,-1.2,135.4,-0.8C135.7,-0.4,135.9,-0.0,136.0,.6C136.1,1.3,136.1,2.2,136.1,2.6C136.1,3.1,136.1,3.2,136.1,3.3L136.3,30.0C136.3,30.4,136.5,30.6,136.8,30.6C137.0,30.6,137.2,30.4,137.3,30.0L137.4,3.3C137.4,3.3,137.4,3.2,137.4,2.6C137.4,2.1,137.4,1.1,137.3,.3C137.2,-0.4,136.9,-0.9,136.6,-1.5C136.3,-2.0,135.9,-2.6,135.5,-3.1C135.0,-3.5,134.5,-3.9,133.9,-4.2C133.3,-4.5,132.7,-4.7,132.1,-4.9L-136.1,-6.6L-134.3,-30.0z" fill="none" stroke="#ffcb46" stroke-linecap="round"/></g><path transform="translate(783.38,407.85)" stroke-width="2" d="M48.4,-22.5L48.4,-4.3C48.4,-2.6,47.0,-1.3,45.4,-1.3L-39.4,-1.3C-41.0,-1.3,-43.5,-1.5,-45.3,-0.6C-47.1,.5,-48.4,2.4,-48.4,4.7L-48.4,22.5" fill="none" stroke="#ffcb46" id="shape12" stroke-linecap="round"/><path transform="translate(735.01,483.85)" stroke-width="2" d="M.0,-22.5L.0,-4.3C.0,-2.6,.0,-0.3,.0,1.7C.0,2.6,.0,3.6,.0,4.7L.0,22.5" fill="none" stroke="#ffcb46" id="shape13" stroke-linecap="round"/><path transform="translate(874.38,407.85)" stroke-width="2" d="M-42.6,-22.5L-42.6,-4.3C-42.6,-2.6,-41.3,-1.3,-39.6,-1.3L33.6,-1.3C35.3,-1.3,37.7,-1.5,39.5,-0.6C41.4,.5,42.6,2.4,42.6,4.7L42.6,22.5" fill="none" stroke="#ffcb46" id="shape14" stroke-linecap="round"/><path transform="translate(917.01,483.85)" stroke-width="2" d="M.0,-22.5L.0,-4.3C.0,-2.6,.0,-0.3,.0,1.7C.0,2.6,.0,3.6,.0,4.7L.0,22.5" fill="none" stroke="#ffcb46" id="shape15" stroke-linecap="round"/><g transform="translate(432.010000,337.350000)" id="shape16"><path stroke-width="2" d="M.0,.0L119.0,.0L119.0,48.0L.0,48.0L.0,.0z" fill="none" stroke="#26a1ff"/><text style="fill:#454545;font-family:微软雅黑;font-size:14.00pt;font-weight:bold" xml:space="preserve"><tspan x="23.3" y="31.0">储存结构</tspan></text></g><g transform="translate(158.510000,337.350000)" id="shape17"><path stroke-width="2" d="M.0,.0L119.0,.0L119.0,48.0L.0,48.0L.0,.0z" fill="none" stroke="#ff6063"/><text style="fill:#454545;font-family:微软雅黑;font-size:14.00pt;font-weight:bold" xml:space="preserve"><tspan x="23.3" y="31.0">应用场景</tspan></text></g><g transform="translate(357.010000,506.350000)" id="shape18"><path stroke-width="2" d="M.0,.0L64.0,.0L64.0,31.0L.0,31.0L.0,.0z" fill="none" stroke="#26a1ff"/><text style="fill:#454545;font-family:微软雅黑;font-size:10.00pt" xml:space="preserve"><tspan x="14.3" y="21.0">拉链法</tspan></text></g><g transform="translate(453.010000,430.350000)" id="shape19"><path stroke-width="2" d="M.0,.0L77.0,.0L77.0,31.0L.0,31.0L.0,.0z" fill="none" stroke="#26a1ff"/><text style="fill:#454545;font-family:微软雅黑;font-size:10.00pt" xml:space="preserve"><tspan x="14.3" y="21.0">冲突解决</tspan></text></g><g transform="translate(109.010000,430.350000)" id="shape20"><path stroke-width="2" d="M.0,.0L218.0,.0L218.0,31.0L.0,31.0L.0,.0z" fill="none" stroke="#ff6063"/><text style="fill:#454545;font-family:微软雅黑;font-size:10.00pt" xml:space="preserve"><tspan x="14.3" y="21.0">把一个庞大的值域映射到 0~N 中</tspan></text></g><g transform="translate(484.760000,506.350000)" id="shape21"><path stroke-width="2" d="M.0,.0L90.0,.0L90.0,31.0L.0,31.0L.0,.0z" fill="none" stroke="#26a1ff"/><text style="fill:#454545;font-family:微软雅黑;font-size:10.00pt" xml:space="preserve"><tspan x="14.3" y="21.0">开放寻址法</tspan></text></g><g transform="translate(363.510000,582.350000)" id="shape22"><path stroke-width="2" d="M.0,.0L51.0,.0L51.0,31.0L.0,31.0L.0,.0z" fill="none" stroke="#26a1ff"/><text style="fill:#454545;font-family:微软雅黑;font-size:10.00pt" xml:space="preserve"><tspan x="14.3" y="21.0">链表</tspan></text></g><g transform="translate(497.010000,582.350000)" id="shape23"><path stroke-width="2" d="M.0,.0L129.0,.0L129.0,31.0L.0,31.0L.0,.0z" fill="none" stroke="#26a1ff"/><text style="fill:#454545;font-family:微软雅黑;font-size:10.00pt" xml:space="preserve"><tspan x="14.3" y="21.0">遇到冲突向后遍历</tspan></text></g><g transform="translate(433.510000,582.350000)" id="shape24"><path stroke-width="2" d="M.0,.0L51.0,.0L51.0,31.0L.0,31.0L.0,.0z" fill="none" stroke="#26a1ff"/><text style="fill:#454545;font-family:微软雅黑;font-size:10.00pt" xml:space="preserve"><tspan x="14.3" y="21.0">数组</tspan></text></g><g transform="translate(734.260000,337.350000)" id="shape25"><path stroke-width="2" d="M.0,.0L195.0,.0L195.0,48.0L.0,48.0L.0,.0z" fill="none" stroke="#ffcb46"/><text style="fill:#454545;font-family:微软雅黑;font-size:14.00pt;font-weight:bold" xml:space="preserve"><tspan x="23.3" y="31.0">字符串前缀哈希法</tspan></text></g><g transform="translate(656.010000,430.350000)" id="shape26"><path stroke-width="2" d="M.0,.0L158.0,.0L158.0,31.0L.0,31.0L.0,.0z" fill="none" stroke="#ffcb46"/><text style="fill:#454545;font-family:微软雅黑;font-size:10.00pt" xml:space="preserve"><tspan x="14.3" y="21.0">将字符串看成 P 进制数</tspan></text></g><g transform="translate(670.510000,506.350000)" id="shape27"><path stroke-width="2" d="M.0,.0L129.0,.0L129.0,31.0L.0,31.0L.0,.0z" fill="none" stroke="#ffcb46"/><text style="fill:#454545;font-family:微软雅黑;font-size:10.00pt" xml:space="preserve"><tspan x="14.3" y="21.0">不考虑冲突的情况</tspan></text></g><g transform="translate(826.510000,430.350000)" id="shape28"><path stroke-width="2" d="M.0,.0L181.0,.0L181.0,31.0L.0,31.0L.0,.0z" fill="none" stroke="#ffcb46"/><text style="fill:#454545;font-family:微软雅黑;font-size:10.00pt" xml:space="preserve"><tspan x="14.3" y="21.0">求得任意一个子串的哈希值</tspan></text></g><g transform="translate(839.010000,506.350000)" id="shape29"><path stroke-width="2" d="M.0,.0L156.0,.0L156.0,31.0L.0,31.0L.0,.0z" fill="none" stroke="#ffcb46"/><text style="fill:#454545;font-family:微软雅黑;font-size:10.00pt" xml:space="preserve"><tspan x="14.3" y="21.0">h</tspan><tspan x="22.3" style="font-size:6.50pt" y="24.1" textLength="17.0">[L,R]</tspan><tspan x="39.3" y="21.0" textLength="26.0"> = h</tspan><tspan x="65.3" style="font-size:6.50pt" y="24.1" textLength="5.0">R</tspan><tspan x="70.3" y="21.0" textLength="22.0"> - h</tspan><tspan x="92.3" style="font-size:6.50pt" y="24.1" textLength="12.0">L-1</tspan><tspan x="104.3" y="21.0" textLength="18.0">×P</tspan><tspan x="122.3" style="font-size:6.50pt" y="14.8" textLength="23.0">R-L+1</tspan></text></g></g></svg>