<svg width="799" viewBox="0 0 799 311" xmlns="http://www.w3.org/2000/svg" xmlns:xlink="http://www.w3.org/1999/xlink" height="311"><defs/><g transform="translate(-159.19,-252.17)"><g transform="translate(160.188571,377.921429)" id="shape1"><path stroke-width="2" fill="#173679" d="M4.0,.0L115.0,.0C117.2,.0,119.0,1.8,119.0,4.0L119.0,63.0C119.0,65.2,117.2,67.0,115.0,67.0L4.0,67.0C1.8,67.0,.0,65.2,.0,63.0L.0,4.0C.0,1.8,1.8,.0,4.0,.0z" stroke="#173679" fill-rule="nonzero"/><text style="fill:#ffffff;font-family:微软雅黑;font-size:18.00pt;font-weight:bold" xml:space="preserve"><tspan x="25.3" y="43.0">哈希表</tspan></text></g><g transform="translate(342.188571,379.321429)" id="shape2"><path stroke-width="2" fill="#f9f9f9" d="M4.0,.0L115.0,.0C117.2,.0,119.0,1.8,119.0,4.0L119.0,44.0C119.0,46.2,117.2,48.0,115.0,48.0L4.0,48.0C1.8,48.0,.0,46.2,.0,44.0L.0,4.0C.0,1.8,1.8,.0,4.0,.0z" stroke="#454545" fill-rule="nonzero"/><text style="fill:#303030;font-family:微软雅黑;font-size:14.00pt;font-weight:bold" xml:space="preserve"><tspan x="23.3" y="31.0">储存结构</tspan></text></g><g transform="translate(342.188571,260.671429)" id="shape3"><path stroke-width="2" fill="#f9f9f9" d="M4.0,.0L115.0,.0C117.2,.0,119.0,1.8,119.0,4.0L119.0,44.0C119.0,46.2,117.2,48.0,115.0,48.0L4.0,48.0C1.8,48.0,.0,46.2,.0,44.0L.0,4.0C.0,1.8,1.8,.0,4.0,.0z" stroke="#454545" fill-rule="nonzero"/><text style="fill:#303030;font-family:微软雅黑;font-size:14.00pt;font-weight:bold" xml:space="preserve"><tspan x="23.3" y="31.0">应用场景</tspan></text></g><g transform="translate(586.188571,341.671429)" id="shape4"><path stroke-width="1" d="M.0,31.5L62.0,31.5" fill="none" stroke="#454545"/><text style="fill:#000000;font-family:微软雅黑;font-size:10.00pt" xml:space="preserve"><tspan x="12.5" y="21.3">拉链法</tspan></text></g><g transform="translate(486.188571,371.821429)" id="shape5"><path stroke-width="1" d="M.0,31.5L75.0,31.5" fill="none" stroke="#454545"/><text style="fill:#000000;font-family:微软雅黑;font-size:10.00pt" xml:space="preserve"><tspan x="12.5" y="21.3">冲突解决</tspan></text></g><g transform="translate(486.188571,253.171429)" id="shape6"><path stroke-width="1" d="M.0,31.5L216.0,31.5" fill="none" stroke="#454545"/><text style="fill:#000000;font-family:微软雅黑;font-size:10.00pt" xml:space="preserve"><tspan x="12.5" y="21.3">把一个庞大的值域映射到 0~N 中</tspan></text></g><g transform="translate(586.188571,401.971429)" id="shape7"><path stroke-width="1" d="M.0,31.5L88.0,31.5" fill="none" stroke="#454545"/><text style="fill:#000000;font-family:微软雅黑;font-size:10.00pt" xml:space="preserve"><tspan x="12.5" y="21.3">开放寻址法</tspan></text></g><g transform="translate(673.188571,341.671429)" id="shape8"><path stroke-width="1" d="M.0,31.5L49.0,31.5" fill="none" stroke="#454545"/><text style="fill:#000000;font-family:微软雅黑;font-size:10.00pt" xml:space="preserve"><tspan x="12.5" y="21.3">链表</tspan></text></g><g transform="translate(699.188571,422.071429)" id="shape9"><path stroke-width="1" d="M.0,31.5L127.0,31.5" fill="none" stroke="#454545"/><text style="fill:#000000;font-family:微软雅黑;font-size:10.00pt" xml:space="preserve"><tspan x="12.5" y="21.3">遇到冲突向后遍历</tspan></text></g><g transform="translate(699.188571,381.871429)" id="shape10"><path stroke-width="1" d="M.0,31.5L49.0,31.5" fill="none" stroke="#454545"/><text style="fill:#000000;font-family:微软雅黑;font-size:10.00pt" xml:space="preserve"><tspan x="12.5" y="21.3">数组</tspan></text></g><g transform="translate(342.188571,514.171429)" id="shape11"><path stroke-width="2" fill="#f9f9f9" d="M4.0,.0L191.0,.0C193.2,.0,195.0,1.8,195.0,4.0L195.0,44.0C195.0,46.2,193.2,48.0,191.0,48.0L4.0,48.0C1.8,48.0,.0,46.2,.0,44.0L.0,4.0C.0,1.8,1.8,.0,4.0,.0z" stroke="#454545" fill-rule="nonzero"/><text style="fill:#303030;font-family:微软雅黑;font-size:14.00pt;font-weight:bold" xml:space="preserve"><tspan x="23.3" y="31.0">字符串前缀哈希法</tspan></text></g><g transform="translate(562.188571,486.571429)" id="shape12"><path stroke-width="1" d="M.0,31.5L156.0,31.5" fill="none" stroke="#454545"/><text style="fill:#000000;font-family:微软雅黑;font-size:10.00pt" xml:space="preserve"><tspan x="12.5" y="21.3">将字符串看成 P 进制数</tspan></text></g><g transform="translate(743.188571,486.571429)" id="shape13"><path stroke-width="1" d="M.0,31.5L127.0,31.5" fill="none" stroke="#454545"/><text style="fill:#000000;font-family:微软雅黑;font-size:10.00pt" xml:space="preserve"><tspan x="12.5" y="21.3">不考虑冲突的情况</tspan></text></g><g transform="translate(562.188571,526.771429)" id="shape14"><path stroke-width="1" d="M.0,31.5L179.0,31.5" fill="none" stroke="#454545"/><text style="fill:#000000;font-family:微软雅黑;font-size:10.00pt" xml:space="preserve"><tspan x="12.5" y="21.3">求得任意一个子串的哈希值</tspan></text></g><g transform="translate(766.188571,526.771429)" id="shape15"><path stroke-width="1" d="M.0,31.5L191.0,31.5" fill="none" stroke="#454545"/><text style="fill:#000000;font-family:微软雅黑;font-size:10.00pt" xml:space="preserve"><tspan x="12.5" y="21.3">h[L,R] = hR - hL-1×PR-L+1</tspan></text></g></g></svg>