<svg width="885" viewBox="0 0 885 397" xmlns="http://www.w3.org/2000/svg" xmlns:ev="http://www.w3.org/2001/xml-events" xmlns:xlink="http://www.w3.org/1999/xlink" height="397"><defs/><g transform="translate(5.5,5.5)" id="page1"><rect x="0" width="875" fill="#ffffff" y="0" height="387"/><g transform="translate(39.188571,163.921429)" id="shape1"><path stroke-width="2" fill="#173679" d="M4.0,.0L115.0,.0C117.2,.0,119.0,1.8,119.0,4.0L119.0,63.0C119.0,65.2,117.2,67.0,115.0,67.0L4.0,67.0C1.8,67.0,.0,65.2,.0,63.0L.0,4.0C.0,1.8,1.8,.0,4.0,.0z" stroke="#173679" fill-rule="nonzero"/><text style="fill:#ffffff;font-family:微软雅黑;font-size:18.00pt;font-weight:bold" xml:space="preserve"><tspan x="25.3" y="43.0">哈希表</tspan></text></g><path transform="translate(159.94,193.37)" stroke-width="2" d="M-1.8,4.1L23.9,4.1C24.4,4.1,24.9,3.6,24.9,3.1L24.9,3.0C24.9,2.4,24.8,1.6,24.9,1.0C25.4,-1.9,27.9,-4.0,30.9,-4.0L61.3,-4.0" fill="none" stroke="#454545" id="shape2" stroke-linecap="round"/><path transform="translate(159.94,134.05)" stroke-width="2" d="M-1.8,63.4L21.9,63.4C23.5,63.4,24.9,62.0,24.9,60.4L24.9,-54.4C24.9,-56.0,24.6,-58.5,25.6,-60.3C26.6,-62.1,28.6,-63.4,30.9,-63.4L61.3,-63.4" fill="none" stroke="#454545" id="shape3" stroke-linecap="round"/><path transform="translate(452.69,174.25)" stroke-width="1" d="M-12.5,15.1L-0.3,15.1C1.4,15.1,2.7,13.7,2.7,12.1L2.7,-6.1C2.7,-7.7,2.5,-10.2,3.4,-12.0C4.5,-13.8,6.4,-15.1,8.7,-15.1L12.5,-15.1" fill="none" stroke="#454545" id="shape4" stroke-linecap="round"/><path transform="translate(352.69,189.32)" stroke-width="1" d="M-12.5,.0L-0.3,.0C1.4,.0,3.7,.0,5.7,.0C6.6,.0,7.6,.0,8.7,.0L12.5,.0" fill="none" stroke="#454545" id="shape5" stroke-linecap="round"/><path transform="translate(352.69,70.67)" stroke-width="1" d="M-12.5,.0L-0.3,.0C1.4,.0,3.7,.0,5.7,.0C6.6,.0,7.6,.0,8.7,.0L12.5,.0" fill="none" stroke="#454545" id="shape6" stroke-linecap="round"/><path transform="translate(452.69,204.40)" stroke-width="1" d="M-12.5,-15.1L-0.3,-15.1C1.4,-15.1,2.7,-13.7,2.7,-12.1L2.7,6.1C2.7,7.7,2.5,10.2,3.4,12.0C4.5,13.8,6.4,15.1,8.7,15.1L12.5,15.1" fill="none" stroke="#454545" id="shape7" stroke-linecap="round"/><path transform="translate(539.69,159.17)" stroke-width="1" d="M-12.5,.0L-0.3,.0C1.4,.0,3.7,.0,5.7,.0C6.6,.0,7.6,.0,8.7,.0L12.5,.0" fill="none" stroke="#454545" id="shape8" stroke-linecap="round"/><path transform="translate(565.69,229.52)" stroke-width="1" d="M-12.5,-10.1L-0.3,-10.1C1.4,-10.1,2.7,-8.7,2.7,-7.1L2.7,1.0C2.7,2.7,2.5,5.2,3.4,6.9C4.5,8.8,6.4,10.0,8.7,10.0L12.5,10.0" fill="none" stroke="#454545" id="shape9" stroke-linecap="round"/><path transform="translate(565.69,209.42)" stroke-width="1" d="M-12.5,10.1L-0.3,10.1C1.4,10.1,2.7,8.7,2.7,7.1L2.7,-1.1C2.7,-2.7,2.5,-5.2,3.4,-6.9C4.5,-8.8,6.4,-10.1,8.7,-10.1L12.5,-10.1" fill="none" stroke="#454545" id="shape10" stroke-linecap="round"/><path transform="translate(159.94,260.80)" stroke-width="2" d="M-1.8,-63.4L21.9,-63.4C23.5,-63.4,24.9,-62.0,24.9,-60.4L24.9,54.4C24.9,56.0,24.6,58.5,25.6,60.3C26.6,62.1,28.6,63.4,30.9,63.4L61.3,63.4" fill="none" stroke="#454545" id="shape11" stroke-linecap="round"/><path transform="translate(428.69,314.12)" stroke-width="1" d="M-12.5,10.1L-0.3,10.1C1.4,10.1,2.7,8.7,2.7,7.1L2.7,-1.1C2.7,-2.7,2.5,-5.2,3.4,-6.9C4.5,-8.8,6.4,-10.1,8.7,-10.1L12.5,-10.1" fill="none" stroke="#454545" id="shape12" stroke-linecap="round"/><path transform="translate(609.69,304.07)" stroke-width="1" d="M-12.5,.0L-0.3,.0C1.4,.0,3.7,.0,5.7,.0C6.6,.0,7.6,.0,8.7,.0L12.5,.0" fill="none" stroke="#454545" id="shape13" stroke-linecap="round"/><path transform="translate(428.69,334.22)" stroke-width="1" d="M-12.5,-10.0L-0.3,-10.0C1.4,-10.0,2.7,-8.7,2.7,-7.0L2.7,1.1C2.7,2.7,2.5,5.2,3.4,6.9C4.5,8.8,6.4,10.1,8.7,10.1L12.5,10.1" fill="none" stroke="#454545" id="shape14" stroke-linecap="round"/><path transform="translate(632.69,344.27)" stroke-width="1" d="M-12.5,.0L-0.3,.0C1.4,.0,3.7,.0,5.7,.0C6.6,.0,7.6,.0,8.7,.0L12.5,.0" fill="none" stroke="#454545" id="shape15" stroke-linecap="round"/><g transform="translate(221.188571,165.321429)" id="shape16"><path stroke-width="2" fill="#f9f9f9" d="M4.0,.0L115.0,.0C117.2,.0,119.0,1.8,119.0,4.0L119.0,44.0C119.0,46.2,117.2,48.0,115.0,48.0L4.0,48.0C1.8,48.0,.0,46.2,.0,44.0L.0,4.0C.0,1.8,1.8,.0,4.0,.0z" stroke="#454545" fill-rule="nonzero"/><text style="fill:#303030;font-family:微软雅黑;font-size:14.00pt;font-weight:bold" xml:space="preserve"><tspan x="23.3" y="31.0">储存结构</tspan></text></g><g transform="translate(221.188571,46.671429)" id="shape17"><path stroke-width="2" fill="#f9f9f9" d="M4.0,.0L115.0,.0C117.2,.0,119.0,1.8,119.0,4.0L119.0,44.0C119.0,46.2,117.2,48.0,115.0,48.0L4.0,48.0C1.8,48.0,.0,46.2,.0,44.0L.0,4.0C.0,1.8,1.8,.0,4.0,.0z" stroke="#454545" fill-rule="nonzero"/><text style="fill:#303030;font-family:微软雅黑;font-size:14.00pt;font-weight:bold" xml:space="preserve"><tspan x="23.3" y="31.0">应用场景</tspan></text></g><g transform="translate(465.188571,127.671429)" id="shape18"><path stroke-width="1" d="M.0,31.5L62.0,31.5" fill="none" stroke="#454545"/><text style="fill:#000000;font-family:微软雅黑;font-size:10.00pt" xml:space="preserve"><tspan x="12.5" y="21.3">拉链法</tspan></text></g><g transform="translate(365.188571,157.821429)" id="shape19"><path stroke-width="1" d="M.0,31.5L75.0,31.5" fill="none" stroke="#454545"/><text style="fill:#000000;font-family:微软雅黑;font-size:10.00pt" xml:space="preserve"><tspan x="12.5" y="21.3">冲突解决</tspan></text></g><g transform="translate(365.188571,39.171429)" id="shape20"><path stroke-width="1" d="M.0,31.5L216.0,31.5" fill="none" stroke="#454545"/><text style="fill:#000000;font-family:微软雅黑;font-size:10.00pt" xml:space="preserve"><tspan x="12.5" y="21.3">把一个庞大的值域映射到 0~N 中</tspan></text></g><g transform="translate(465.188571,187.971429)" id="shape21"><path stroke-width="1" d="M.0,31.5L88.0,31.5" fill="none" stroke="#454545"/><text style="fill:#000000;font-family:微软雅黑;font-size:10.00pt" xml:space="preserve"><tspan x="12.5" y="21.3">开放寻址法</tspan></text></g><g transform="translate(552.188571,127.671429)" id="shape22"><path stroke-width="1" d="M.0,31.5L49.0,31.5" fill="none" stroke="#454545"/><text style="fill:#000000;font-family:微软雅黑;font-size:10.00pt" xml:space="preserve"><tspan x="12.5" y="21.3">链表</tspan></text></g><g transform="translate(578.188571,208.071429)" id="shape23"><path stroke-width="1" d="M.0,31.5L127.0,31.5" fill="none" stroke="#454545"/><text style="fill:#000000;font-family:微软雅黑;font-size:10.00pt" xml:space="preserve"><tspan x="12.5" y="21.3">遇到冲突向后遍历</tspan></text></g><g transform="translate(578.188571,167.871429)" id="shape24"><path stroke-width="1" d="M.0,31.5L49.0,31.5" fill="none" stroke="#454545"/><text style="fill:#000000;font-family:微软雅黑;font-size:10.00pt" xml:space="preserve"><tspan x="12.5" y="21.3">数组</tspan></text></g><g transform="translate(221.188571,300.171429)" id="shape25"><path stroke-width="2" fill="#f9f9f9" d="M4.0,.0L191.0,.0C193.2,.0,195.0,1.8,195.0,4.0L195.0,44.0C195.0,46.2,193.2,48.0,191.0,48.0L4.0,48.0C1.8,48.0,.0,46.2,.0,44.0L.0,4.0C.0,1.8,1.8,.0,4.0,.0z" stroke="#454545" fill-rule="nonzero"/><text style="fill:#303030;font-family:微软雅黑;font-size:14.00pt;font-weight:bold" xml:space="preserve"><tspan x="23.3" y="31.0">字符串前缀哈希法</tspan></text></g><g transform="translate(441.188571,272.571429)" id="shape26"><path stroke-width="1" d="M.0,31.5L156.0,31.5" fill="none" stroke="#454545"/><text style="fill:#000000;font-family:微软雅黑;font-size:10.00pt" xml:space="preserve"><tspan x="12.5" y="21.3">将字符串看成 P 进制数</tspan></text></g><g transform="translate(622.188571,272.571429)" id="shape27"><path stroke-width="1" d="M.0,31.5L127.0,31.5" fill="none" stroke="#454545"/><text style="fill:#000000;font-family:微软雅黑;font-size:10.00pt" xml:space="preserve"><tspan x="12.5" y="21.3">不考虑冲突的情况</tspan></text></g><g transform="translate(441.188571,312.771429)" id="shape28"><path stroke-width="1" d="M.0,31.5L179.0,31.5" fill="none" stroke="#454545"/><text style="fill:#000000;font-family:微软雅黑;font-size:10.00pt" xml:space="preserve"><tspan x="12.5" y="21.3">求得任意一个子串的哈希值</tspan></text></g><g transform="translate(645.188571,312.771429)" id="shape29"><path stroke-width="1" d="M.0,31.5L191.0,31.5" fill="none" stroke="#454545"/><text style="fill:#000000;font-family:微软雅黑;font-size:10.00pt" xml:space="preserve"><tspan x="12.5" y="21.3">h[L,R] = hR - hL-1×PR-L+1</tspan></text></g></g></svg>