<svg xmlns:ev="http://www.w3.org/2001/xml-events" width="1133" xmlns:xlink="http://www.w3.org/1999/xlink" viewBox="0 0 1133 804" xmlns="http://www.w3.org/2000/svg" height="804"><defs/><g id="page1" transform="translate(5.5,5.5)"><rect width="1123" fill="#ffffff" x="0" y="0" height="794"/><g id="shape1" transform="translate(51.135137,371.556276)"><path fill="#5a97fb" stroke="#5a97fb" fill-rule="nonzero" d="M34.0,.0L124.7,.0C143.5,.0,158.7,15.2,158.7,34.0C158.7,52.8,143.5,68.0,124.7,68.0L34.0,68.0C15.2,68.0,.0,52.8,.0,34.0C.0,15.2,15.2,.0,34.0,.0z" stroke-width="3"/><text style="fill:#ffffff;font-family:微软雅黑;font-size:18.00pt;font-weight:bold" xml:space="preserve"><tspan x="33.2" y="43.5">动态规划</tspan></text></g><path fill="none" stroke="#454545" id="shape2" d="M-24.8,51.0C1.7,1.4,8.6,-85.0,71.2,-85.0" stroke-width="3" transform="translate(201.68,320.54)" stroke-linecap="round"/><path fill="none" stroke="#454545" id="shape3" d="M5.6,.5C26.8,6.6,47.0,12.6,71.2,12.6" stroke-width="3" transform="translate(201.68,418.12)" stroke-linecap="round"/><path fill="none" stroke="#454545" id="shape4" d="M-12.5,30.2C3.6,30.2,-9.2,-30.2,12.5,-30.2" stroke-width="1" transform="translate(404.36,205.38)" stroke-linecap="round"/><path fill="none" stroke="#454545" id="shape5" d="M-12.5,10.1C-0.2,10.1,-0.4,-10.1,12.5,-10.1" stroke-width="1" transform="translate(404.36,225.48)" stroke-linecap="round"/><path fill="none" stroke="#454545" id="shape6" d="M-12.5,.0C-2.5,.0,5.0,.0,12.5,.0" stroke-width="1" transform="translate(478.36,215.43)" stroke-linecap="round"/><path fill="none" stroke="#454545" id="shape7" d="M-12.5,-30.1C3.6,-30.1,-9.2,30.1,12.5,30.1" stroke-width="1" transform="translate(404.36,265.68)" stroke-linecap="round"/><path fill="none" stroke="#454545" id="shape8" d="M-12.5,.0C-2.5,.0,5.0,.0,12.5,.0" stroke-width="1" transform="translate(478.36,295.83)" stroke-linecap="round"/><path fill="none" stroke="#454545" id="shape9" d="M-12.5,20.1C1.9,20.1,-5.3,-20.1,12.5,-20.1" stroke-width="1" transform="translate(591.36,275.73)" stroke-linecap="round"/><path fill="none" stroke="#454545" id="shape10" d="M-12.5,.0C-2.5,.0,5.0,.0,12.5,.0" stroke-width="1" transform="translate(591.36,295.83)" stroke-linecap="round"/><path fill="none" stroke="#454545" id="shape11" d="M-12.5,-20.1C1.9,-20.1,-5.3,20.1,12.5,20.1" stroke-width="1" transform="translate(591.36,315.93)" stroke-linecap="round"/><path fill="none" stroke="#454545" id="shape12" d="M-12.5,.0C-2.5,.0,5.0,.0,12.5,.0" stroke-width="1" transform="translate(404.36,430.68)" stroke-linecap="round"/><path fill="none" stroke="#454545" id="shape13" d="M-12.5,15.1C.9,15.1,-3.0,-15.1,12.5,-15.1" stroke-width="1" transform="translate(530.36,415.61)" stroke-linecap="round"/><path fill="none" stroke="#454545" id="shape14" d="M-12.5,-15.1C.9,-15.1,-3.0,15.1,12.5,15.1" stroke-width="1" transform="translate(530.36,445.76)" stroke-linecap="round"/><path fill="none" stroke="#454545" id="shape15" d="M-12.5,10.1C-0.2,10.1,-0.4,-10.1,12.5,-10.1" stroke-width="1" transform="translate(747.36,450.78)" stroke-linecap="round"/><path fill="none" stroke="#454545" id="shape16" d="M-12.5,-10.1C-0.2,-10.1,-0.4,10.0,12.5,10.0" stroke-width="1" transform="translate(747.36,470.88)" stroke-linecap="round"/><path fill="none" stroke="#454545" id="shape17" d="M-24.8,-51.0C1.7,-1.4,8.6,85.0,71.2,85.0" stroke-width="3" transform="translate(201.68,490.57)" stroke-linecap="round"/><path fill="none" stroke="#454545" id="shape18" d="M-12.5,15.1C.9,15.1,-3.0,-15.1,12.5,-15.1" stroke-width="1" transform="translate(366.36,560.51)" stroke-linecap="round"/><path fill="none" stroke="#454545" id="shape19" d="M-12.5,.0C-2.5,.0,5.0,.0,12.5,.0" stroke-width="1" transform="translate(544.36,545.43)" stroke-linecap="round"/><path fill="none" stroke="#454545" id="shape20" d="M-12.5,-15.1C.9,-15.1,-3.0,15.1,12.5,15.1" stroke-width="1" transform="translate(366.36,590.66)" stroke-linecap="round"/><path fill="none" stroke="#454545" id="shape21" d="M-12.5,.0C-2.5,.0,5.0,.0,12.5,.0" stroke-width="1" transform="translate(453.36,605.73)" stroke-linecap="round"/><path fill="none" stroke="#454545" id="shape22" d="M-12.5,.0C-2.5,.0,5.0,.0,12.5,.0" stroke-width="1" transform="translate(553.36,605.73)" stroke-linecap="round"/><path fill="none" stroke="#454545" id="shape23" d="M-12.5,10.1C-0.2,10.1,-0.4,-10.0,12.5,-10.0" stroke-width="1" transform="translate(796.36,595.68)" stroke-linecap="round"/><path fill="none" stroke="#454545" id="shape24" d="M-12.5,-10.1C-0.2,-10.1,-0.4,10.0,12.5,10.0" stroke-width="1" transform="translate(796.36,615.78)" stroke-linecap="round"/><path fill="none" stroke="#454545" id="shape25" d="M-12.5,.0C-2.5,.0,5.0,.0,12.5,.0" stroke-width="1" transform="translate(883.36,585.63)" stroke-linecap="round"/><path fill="none" stroke="#454545" id="shape26" d="M-12.5,.0C-2.5,.0,5.0,.0,12.5,.0" stroke-width="1" transform="translate(883.36,625.83)" stroke-linecap="round"/><g id="shape27" transform="translate(272.855137,211.531276)"><path fill="#ffffff" stroke="#454545" fill-rule="nonzero" d="M4.0,.0L115.0,.0C117.2,.0,119.0,1.8,119.0,4.0L119.0,44.0C119.0,46.2,117.2,48.0,115.0,48.0L4.0,48.0C1.8,48.0,.0,46.2,.0,44.0L.0,4.0C.0,1.8,1.8,.0,4.0,.0z" stroke-width="2"/><text style="fill:#303030;font-family:微软雅黑;font-size:14.00pt;font-weight:bold" xml:space="preserve"><tspan x="23.3" y="31.0">状态表示</tspan></text></g><g id="shape28" transform="translate(272.855137,406.681276)"><path fill="#ffffff" stroke="#454545" fill-rule="nonzero" d="M4.0,.0L115.0,.0C117.2,.0,119.0,1.8,119.0,4.0L119.0,44.0C119.0,46.2,117.2,48.0,115.0,48.0L4.0,48.0C1.8,48.0,.0,46.2,.0,44.0L.0,4.0C.0,1.8,1.8,.0,4.0,.0z" stroke-width="2"/><text style="fill:#303030;font-family:微软雅黑;font-size:14.00pt;font-weight:bold" xml:space="preserve"><tspan x="23.3" y="31.0">状态计算</tspan></text></g><g id="shape29" transform="translate(416.855137,143.731276)"><path fill="#ffffff" fill-rule="nonzero" d="M.0,.0L88.0,.0L88.0,31.5L.0,31.5L.0,.0z"/><path fill="none" stroke="#454545" d="M.0,31.5L88.0,31.5" stroke-width="1"/><text style="fill:#303030;font-family:微软雅黑;font-size:10.00pt;font-weight:bold" xml:space="preserve"><tspan x="12.5" y="21.3">用几维表示</tspan></text></g><g id="shape30" transform="translate(416.855137,183.931276)"><path fill="#ffffff" fill-rule="nonzero" d="M.0,.0L49.0,.0L49.0,31.5L.0,31.5L.0,.0z"/><path fill="none" stroke="#454545" d="M.0,31.5L49.0,31.5" stroke-width="1"/><text style="fill:#303030;font-family:微软雅黑;font-size:10.00pt" xml:space="preserve"><tspan x="12.5" y="21.3">集合</tspan></text></g><g id="shape31" transform="translate(490.855137,183.931276)"><path fill="#ffffff" fill-rule="nonzero" d="M.0,.0L178.0,.0L178.0,31.5L.0,31.5L.0,.0z"/><path fill="none" stroke="#454545" d="M.0,31.5L178.0,31.5" stroke-width="1"/><text style="fill:#303030;font-family:微软雅黑;font-size:10.00pt" xml:space="preserve"><tspan x="12.5" y="21.3">满足某些 </tspan><tspan style="font-weight:bold" x="68.5">条件</tspan><tspan x="94.5"> 的 </tspan><tspan style="font-weight:bold" x="115.5">所有选法</tspan></text></g><g id="shape32" transform="translate(416.855137,264.331276)"><path fill="#ffffff" fill-rule="nonzero" d="M.0,.0L49.0,.0L49.0,31.5L.0,31.5L.0,.0z"/><path fill="none" stroke="#454545" d="M.0,31.5L49.0,31.5" stroke-width="1"/><text style="fill:#303030;font-family:微软雅黑;font-size:10.00pt" xml:space="preserve"><tspan x="12.5" y="21.3">属性</tspan></text></g><g id="shape33" transform="translate(490.855137,264.331276)"><path fill="#ffffff" fill-rule="nonzero" d="M.0,.0L88.0,.0L88.0,31.5L.0,31.5L.0,.0z"/><path fill="none" stroke="#454545" d="M.0,31.5L88.0,31.5" stroke-width="1"/><text style="fill:#303030;font-family:微软雅黑;font-size:10.00pt" xml:space="preserve"><tspan x="12.5" y="21.3">求解的目标</tspan></text></g><g id="shape34" transform="translate(603.855137,224.131276)"><path fill="#ffffff" fill-rule="nonzero" d="M.0,.0L62.0,.0L62.0,31.5L.0,31.5L.0,.0z"/><path fill="none" stroke="#454545" d="M.0,31.5L62.0,31.5" stroke-width="1"/><text style="fill:#303030;font-family:微软雅黑;font-size:10.00pt" xml:space="preserve"><tspan x="12.5" y="21.3">最大值</tspan></text></g><g id="shape35" transform="translate(603.855137,264.331276)"><path fill="#ffffff" fill-rule="nonzero" d="M.0,.0L62.0,.0L62.0,31.5L.0,31.5L.0,.0z"/><path fill="none" stroke="#454545" d="M.0,31.5L62.0,31.5" stroke-width="1"/><text style="fill:#303030;font-family:微软雅黑;font-size:10.00pt" xml:space="preserve"><tspan x="12.5" y="21.3">最小值</tspan></text></g><g id="shape36" transform="translate(603.855137,304.531276)"><path fill="#ffffff" fill-rule="nonzero" d="M.0,.0L88.0,.0L88.0,31.5L.0,31.5L.0,.0z"/><path fill="none" stroke="#454545" d="M.0,31.5L88.0,31.5" stroke-width="1"/><text style="fill:#303030;font-family:微软雅黑;font-size:10.00pt" xml:space="preserve"><tspan x="12.5" y="21.3">元素的数量</tspan></text></g><g id="shape37" transform="translate(416.855137,399.181276)"><path fill="#ffffff" fill-rule="nonzero" d="M.0,.0L101.0,.0L101.0,31.5L.0,31.5L.0,.0z"/><path fill="none" stroke="#454545" d="M.0,31.5L101.0,31.5" stroke-width="1"/><text style="fill:#303030;font-family:微软雅黑;font-size:10.00pt;font-weight:bold" xml:space="preserve"><tspan x="12.5" y="21.3">集合如何划分</tspan></text></g><g id="shape38" transform="translate(542.855137,369.031276)"><path fill="#ffffff" fill-rule="nonzero" d="M.0,.0L231.0,.0L231.0,31.5L.0,31.5L.0,.0z"/><path fill="none" stroke="#454545" d="M.0,31.5L231.0,31.5" stroke-width="1"/><text style="fill:#303030;font-family:微软雅黑;font-size:10.00pt" xml:space="preserve"><tspan x="12.5" y="21.3">把集合划分为若干个可以计算的子集</tspan></text></g><g id="shape39" transform="translate(542.855137,429.331276)"><path fill="#ffffff" fill-rule="nonzero" d="M.0,.0L192.0,.0L192.0,31.5L.0,31.5L.0,.0z"/><path fill="none" stroke="#454545" d="M.0,31.5L192.0,31.5" stroke-width="1"/><text style="fill:#303030;font-family:微软雅黑;font-size:10.00pt" xml:space="preserve"><tspan x="12.5" y="21.3">每一个元素出现且仅出现一次</tspan></text></g><g id="shape40" transform="translate(759.855137,409.231276)"><path fill="#ffffff" fill-rule="nonzero" d="M.0,.0L49.0,.0L49.0,31.5L.0,31.5L.0,.0z"/><path fill="none" stroke="#454545" d="M.0,31.5L49.0,31.5" stroke-width="1"/><text style="fill:#303030;font-family:微软雅黑;font-size:10.00pt" xml:space="preserve"><tspan x="12.5" y="21.3">不重</tspan></text></g><g id="shape41" transform="translate(759.855137,449.431276)"><path fill="#ffffff" fill-rule="nonzero" d="M.0,.0L49.0,.0L49.0,31.5L.0,31.5L.0,.0z"/><path fill="none" stroke="#454545" d="M.0,31.5L49.0,31.5" stroke-width="1"/><text style="fill:#303030;font-family:微软雅黑;font-size:10.00pt" xml:space="preserve"><tspan x="12.5" y="21.3">不漏</tspan></text></g><g id="shape42" transform="translate(272.855137,551.581276)"><path fill="#ffffff" stroke="#454545" fill-rule="nonzero" d="M4.0,.0L77.0,.0C79.2,.0,81.0,1.8,81.0,4.0L81.0,44.0C81.0,46.2,79.2,48.0,77.0,48.0L4.0,48.0C1.8,48.0,.0,46.2,.0,44.0L.0,4.0C.0,1.8,1.8,.0,4.0,.0z" stroke-width="2"/><text style="fill:#303030;font-family:微软雅黑;font-size:14.00pt;font-weight:bold" xml:space="preserve"><tspan x="23.3" y="31.0">优化</tspan></text></g><g id="shape43" transform="translate(378.855137,513.931276)"><path fill="#ffffff" fill-rule="nonzero" d="M.0,.0L153.0,.0L153.0,31.5L.0,31.5L.0,.0z"/><path fill="none" stroke="#454545" d="M.0,31.5L153.0,31.5" stroke-width="1"/><text style="fill:#303030;font-family:微软雅黑;font-size:10.00pt" xml:space="preserve"><tspan x="12.5" y="21.3">代码或方程的等价变形</tspan></text></g><g id="shape44" transform="translate(556.855137,513.931276)"><path fill="#ffffff" fill-rule="nonzero" d="M.0,.0L101.0,.0L101.0,31.5L.0,31.5L.0,.0z"/><path fill="none" stroke="#454545" d="M.0,31.5L101.0,31.5" stroke-width="1"/><text style="fill:#303030;font-family:微软雅黑;font-size:10.00pt" xml:space="preserve"><tspan x="12.5" y="21.3">相似方程合并</tspan></text></g><g id="shape45" transform="translate(378.855137,574.231276)"><path fill="#ffffff" fill-rule="nonzero" d="M.0,.0L62.0,.0L62.0,31.5L.0,31.5L.0,.0z"/><path fill="none" stroke="#454545" d="M.0,31.5L62.0,31.5" stroke-width="1"/><text style="fill:#303030;font-family:微软雅黑;font-size:10.00pt" xml:space="preserve"><tspan x="12.5" y="21.3">一维化</tspan></text></g><g id="shape46" transform="translate(465.855137,574.231276)"><path fill="#ffffff" fill-rule="nonzero" d="M.0,.0L75.0,.0L75.0,31.5L.0,31.5L.0,.0z"/><path fill="none" stroke="#454545" d="M.0,31.5L75.0,31.5" stroke-width="1"/><text style="fill:#303030;font-family:微软雅黑;font-size:10.00pt" xml:space="preserve"><tspan x="12.5" y="21.3">滚动数组</tspan></text></g><g id="shape47" transform="translate(565.855137,574.231276)"><path fill="#ffffff" fill-rule="nonzero" d="M.0,.0L218.0,.0L218.0,31.5L.0,31.5L.0,.0z"/><path fill="none" stroke="#454545" d="M.0,31.5L218.0,31.5" stroke-width="1"/><text style="fill:#303030;font-family:微软雅黑;font-size:10.00pt" xml:space="preserve"><tspan x="12.5" y="21.3">看准第二维度是正循环还是反循环</tspan></text></g><g id="shape48" transform="translate(808.855137,554.131276)"><path fill="#ffffff" fill-rule="nonzero" d="M.0,.0L62.0,.0L62.0,31.5L.0,31.5L.0,.0z"/><path fill="none" stroke="#454545" d="M.0,31.5L62.0,31.5" stroke-width="1"/><text style="fill:#303030;font-family:微软雅黑;font-size:10.00pt" xml:space="preserve"><tspan x="12.5" y="21.3">正循环</tspan></text></g><g id="shape49" transform="translate(808.855137,594.331276)"><path fill="#ffffff" fill-rule="nonzero" d="M.0,.0L62.0,.0L62.0,31.5L.0,31.5L.0,.0z"/><path fill="none" stroke="#454545" d="M.0,31.5L62.0,31.5" stroke-width="1"/><text style="fill:#303030;font-family:微软雅黑;font-size:10.00pt" xml:space="preserve"><tspan x="12.5" y="21.3">反循环</tspan></text></g><g id="shape50" transform="translate(895.855137,558.131276)"><path fill="#ffffff" fill-rule="nonzero" d="M.0,.0L170.0,.0L170.0,27.5L.0,27.5L.0,.0z"/><path fill="none" stroke="#454545" d="M.0,27.5L170.0,27.5" stroke-width="1"/><text style="fill:#303030;font-family:Consolas;font-size:10.00pt" xml:space="preserve"><tspan x="12.5" y="18.3">f(i, j) = f(i, i-...)</tspan></text></g><g id="shape51" transform="translate(895.855137,598.331276)"><path fill="#ffffff" fill-rule="nonzero" d="M.0,.0L184.0,.0L184.0,27.5L.0,27.5L.0,.0z"/><path fill="none" stroke="#454545" d="M.0,27.5L184.0,27.5" stroke-width="1"/><text style="fill:#303030;font-family:Consolas;font-size:10.00pt" xml:space="preserve"><tspan x="12.5" y="18.3">f(i, j) = f(i-1, j-...)</tspan></text></g></g></svg>