<svg height="523" xmlns:xlink="http://www.w3.org/1999/xlink" width="468" xmlns="http://www.w3.org/2000/svg" viewBox="0 0 468 523" xmlns:ev="http://www.w3.org/2001/xml-events"><defs/><g transform="translate(5.5,5.5)" id="page1"><rect height="513" y="0" width="458" fill="#ffffff" x="0"/><g transform="translate(186.500000,39.000000)" id="shape1"><path d="M25.0,50.0L75.0,50.0L75.0,50.0C88.8,50.0,100.0,38.8,100.0,25.0C100.0,11.2,88.8,.0,75.0,.0L25.0,.0L25.0,.0C11.2,.0,.0,11.2,.0,25.0C.0,38.8,11.2,50.0,25.0,50.0z" fill="#1a255e" fill-rule="nonzero" stroke-width="1" stroke="#1a255e"/><text style="fill:#ffffff;font-family:微软雅黑;font-size:15.00pt;font-weight:bold" xml:space="preserve"><tspan y="32.5" x="20.5">ROOT</tspan></text></g><g transform="translate(104.500000,125.000000)" id="shape2"><path d="M.0,21.5C.0,9.6,9.6,.0,21.5,.0C33.4,.0,43.0,9.6,43.0,21.5C43.0,33.4,33.4,43.0,21.5,43.0C9.6,43.0,.0,33.4,.0,21.5z" fill="#ffffff" fill-rule="nonzero" stroke-width="1" stroke="#101843"/><text style="fill:#191919;font-family:微软雅黑;font-size:12.00pt" xml:space="preserve"><tspan y="28.0" x="17.0">a</tspan></text></g><g transform="translate(39.500000,201.000000)" id="shape3"><path d="M.0,21.5C.0,9.6,9.6,.0,21.5,.0C33.4,.0,43.0,9.6,43.0,21.5C43.0,33.4,33.4,43.0,21.5,43.0C9.6,43.0,.0,33.4,.0,21.5z" fill="#ffc000" fill-rule="nonzero" stroke-width="1" stroke="#101843"/><text style="fill:#191919;font-family:微软雅黑;font-size:12.00pt" xml:space="preserve"><tspan y="28.0" x="16.5">b</tspan></text></g><g transform="translate(174.000000,201.000000)" id="shape4"><path d="M.0,21.5C.0,9.6,9.6,.0,21.5,.0C33.4,.0,43.0,9.6,43.0,21.5C43.0,33.4,33.4,43.0,21.5,43.0C9.6,43.0,.0,33.4,.0,21.5z" fill="#ffc000" fill-rule="nonzero" stroke-width="1" stroke="#101843"/><text style="fill:#191919;font-family:微软雅黑;font-size:12.00pt" xml:space="preserve"><tspan y="28.0" x="17.5">c</tspan></text></g><g transform="translate(39.500000,275.175197)" id="shape5"><path d="M.0,21.5C.0,9.6,9.6,.0,21.5,.0C33.4,.0,43.0,9.6,43.0,21.5C43.0,33.4,33.4,43.0,21.5,43.0C9.6,43.0,.0,33.4,.0,21.5z" fill="#ffffff" fill-rule="nonzero" stroke-width="1" stroke="#101843"/><text style="fill:#191919;font-family:微软雅黑;font-size:12.00pt" xml:space="preserve"><tspan y="28.0" x="17.5">c</tspan></text></g><g transform="translate(39.500000,353.000000)" id="shape6"><path d="M.0,21.5C.0,9.6,9.6,.0,21.5,.0C33.4,.0,43.0,9.6,43.0,21.5C43.0,33.4,33.4,43.0,21.5,43.0C9.6,43.0,.0,33.4,.0,21.5z" fill="#ffc000" fill-rule="nonzero" stroke-width="1" stroke="#101843"/><text style="fill:#191919;font-family:微软雅黑;font-size:12.00pt" xml:space="preserve"><tspan y="28.0" x="16.5">d</tspan></text></g><g transform="translate(39.500000,430.824803)" id="shape7"><path d="M.0,21.5C.0,9.6,9.6,.0,21.5,.0C33.4,.0,43.0,9.6,43.0,21.5C43.0,33.4,33.4,43.0,21.5,43.0C9.6,43.0,.0,33.4,.0,21.5z" fill="#ffc000" fill-rule="nonzero" stroke-width="1" stroke="#101843"/><text style="fill:#191919;font-family:微软雅黑;font-size:12.00pt" xml:space="preserve"><tspan y="28.0" x="17.0">e</tspan></text></g><g transform="translate(174.000000,275.175197)" id="shape8"><path d="M.0,21.5C.0,9.6,9.6,.0,21.5,.0C33.4,.0,43.0,9.6,43.0,21.5C43.0,33.4,33.4,43.0,21.5,43.0C9.6,43.0,.0,33.4,.0,21.5z" fill="#ffffff" fill-rule="nonzero" stroke-width="1" stroke="#101843"/><text style="fill:#191919;font-family:微软雅黑;font-size:12.00pt" xml:space="preserve"><tspan y="28.0" x="17.5">c</tspan></text></g><g transform="translate(125.000000,353.000000)" id="shape9"><path d="M.0,21.5C.0,9.6,9.6,.0,21.5,.0C33.4,.0,43.0,9.6,43.0,21.5C43.0,33.4,33.4,43.0,21.5,43.0C9.6,43.0,.0,33.4,.0,21.5z" fill="#ffc000" fill-rule="nonzero" stroke-width="1" stroke="#101843"/><text style="fill:#191919;font-family:微软雅黑;font-size:12.00pt" xml:space="preserve"><tspan y="28.0" x="17.5">c</tspan></text></g><g transform="translate(223.000000,353.000000)" id="shape10"><path d="M.0,21.5C.0,9.6,9.6,.0,21.5,.0C33.4,.0,43.0,9.6,43.0,21.5C43.0,33.4,33.4,43.0,21.5,43.0C9.6,43.0,.0,33.4,.0,21.5z" fill="#ffc000" fill-rule="nonzero" stroke-width="1" stroke="#101843"/><text style="fill:#191919;font-family:微软雅黑;font-size:12.00pt" xml:space="preserve"><tspan y="28.0" x="17.0">e</tspan></text></g><g transform="translate(315.500000,125.000000)" id="shape11"><path d="M.0,21.5C.0,9.6,9.6,.0,21.5,.0C33.4,.0,43.0,9.6,43.0,21.5C43.0,33.4,33.4,43.0,21.5,43.0C9.6,43.0,.0,33.4,.0,21.5z" fill="#ffffff" fill-rule="nonzero" stroke-width="1" stroke="#101843"/><text style="fill:#191919;font-family:微软雅黑;font-size:12.00pt" xml:space="preserve"><tspan y="28.0" x="17.5">c</tspan></text></g><g transform="translate(256.879921,201.000000)" id="shape12"><path d="M.0,21.5C.0,9.6,9.6,.0,21.5,.0C33.4,.0,43.0,9.6,43.0,21.5C43.0,33.4,33.4,43.0,21.5,43.0C9.6,43.0,.0,33.4,.0,21.5z" fill="#ffc000" fill-rule="nonzero" stroke-width="1" stroke="#101843"/><text style="fill:#191919;font-family:微软雅黑;font-size:12.00pt" xml:space="preserve"><tspan y="28.0" x="16.5">b</tspan></text></g><g transform="translate(376.120079,201.000000)" id="shape13"><path d="M.0,21.5C.0,9.6,9.6,.0,21.5,.0C33.4,.0,43.0,9.6,43.0,21.5C43.0,33.4,33.4,43.0,21.5,43.0C9.6,43.0,.0,33.4,.0,21.5z" fill="#ffffff" fill-rule="nonzero" stroke-width="1" stroke="#101843"/><text style="fill:#191919;font-family:微软雅黑;font-size:12.00pt" xml:space="preserve"><tspan y="28.0" x="17.5">c</tspan></text></g><g transform="translate(376.120079,275.175197)" id="shape14"><path d="M.0,21.5C.0,9.6,9.6,.0,21.5,.0C33.4,.0,43.0,9.6,43.0,21.5C43.0,33.4,33.4,43.0,21.5,43.0C9.6,43.0,.0,33.4,.0,21.5z" fill="#ffc000" fill-rule="nonzero" stroke-width="1" stroke="#101843"/><text style="fill:#191919;font-family:微软雅黑;font-size:12.00pt" xml:space="preserve"><tspan y="28.0" x="17.0">e</tspan></text></g><g transform="translate(61.000000,244.000000)" id="shape15"><path d="M.0,.0L.0,25.0" fill="none" stroke-width="1" stroke="#191919"/><path d="M3.0,25.0L.0,31.0L-3.0,25.0L3.0,25.0" fill="#191919" stroke-linecap="round" stroke-width="1" stroke="#191919"/></g><g transform="translate(61.000000,318.175197)" id="shape16"><path d="M.0,.0L.0,29.0" fill="none" stroke-width="1" stroke="#191919"/><path d="M3.0,29.0L.0,35.0L-3.0,29.0L3.0,29.0" fill="#191919" stroke-linecap="round" stroke-width="1" stroke="#191919"/></g><g transform="translate(195.500000,244.000000)" id="shape17"><path d="M.0,.0L.0,25.0" fill="none" stroke-width="1" stroke="#191919"/><path d="M3.0,25.0L.0,31.0L-3.0,25.0L3.0,25.0" fill="#191919" stroke-linecap="round" stroke-width="1" stroke="#191919"/></g><g transform="translate(397.620079,244.000000)" id="shape18"><path d="M.0,.0L.0,25.0" fill="none" stroke-width="1" stroke="#191919"/><path d="M3.0,25.0L.0,31.0L-3.0,25.0L3.0,25.0" fill="#191919" stroke-linecap="round" stroke-width="1" stroke="#191919"/></g><g transform="translate(61.000000,396.000000)" id="shape19"><path d="M.0,.0L.0,28.0" fill="none" stroke-width="1" stroke="#191919"/><path d="M3.0,28.0L.0,34.0L-3.0,28.0L3.0,28.0" fill="#191919" stroke-linecap="round" stroke-width="1" stroke="#191919"/></g><g transform="translate(104.500000,146.500000)" id="shape20"><path d="M.0,.0L-43.0,.0L-43.0,49.0" fill="none" stroke-width="1" stroke="#191919"/><path d="M-40.0,49.0L-43.0,55.0L-46.0,49.0L-40.0,49.0" fill="#191919" stroke-linecap="round" stroke-width="1" stroke="#191919"/></g><g transform="translate(147.500000,146.500000)" id="shape21"><path d="M.0,.0L48.0,.0L48.0,49.0" fill="none" stroke-width="1" stroke="#191919"/><path d="M51.0,49.0L48.0,55.0L45.0,49.0L51.0,49.0" fill="#191919" stroke-linecap="round" stroke-width="1" stroke="#191919"/></g><g transform="translate(358.500000,146.500000)" id="shape22"><path d="M.0,.0L39.0,.0L39.0,49.0" fill="none" stroke-width="1" stroke="#191919"/><path d="M42.0,49.0L39.0,55.0L36.0,49.0L42.0,49.0" fill="#191919" stroke-linecap="round" stroke-width="1" stroke="#191919"/></g><g transform="translate(174.000000,296.675197)" id="shape23"><path d="M.0,.0L-28.0,.0L-28.0,51.0" fill="none" stroke-width="1" stroke="#191919"/><path d="M-25.0,51.0L-28.0,57.0L-31.0,51.0L-25.0,51.0" fill="#191919" stroke-linecap="round" stroke-width="1" stroke="#191919"/></g><g transform="translate(217.000000,296.675197)" id="shape24"><path d="M.0,.0L27.0,.0L27.0,51.0" fill="none" stroke-width="1" stroke="#191919"/><path d="M30.0,51.0L27.0,57.0L24.0,51.0L30.0,51.0" fill="#191919" stroke-linecap="round" stroke-width="1" stroke="#191919"/></g><g transform="translate(315.500000,146.500000)" id="shape25"><path d="M.0,.0L-37.0,.0L-37.0,49.0" fill="none" stroke-width="1" stroke="#191919"/><path d="M-34.0,49.0L-37.0,55.0L-40.0,49.0L-34.0,49.0" fill="#191919" stroke-linecap="round" stroke-width="1" stroke="#191919"/></g><g transform="translate(286.500000,64.000000)" id="shape26"><path d="M.0,.0L50.0,.0L50.0,55.0" fill="none" stroke-width="1" stroke="#191919"/><path d="M53.0,55.0L50.0,61.0L47.0,55.0L53.0,55.0" fill="#191919" stroke-linecap="round" stroke-width="1" stroke="#191919"/></g><g transform="translate(186.500000,64.000000)" id="shape27"><path d="M.0,.0L-60.0,.0L-60.0,55.0" fill="none" stroke-width="1" stroke="#191919"/><path d="M-57.0,55.0L-60.0,61.0L-63.0,55.0L-57.0,55.0" fill="#191919" stroke-linecap="round" stroke-width="1" stroke="#191919"/></g></g></svg>